# This file uses centimeters as units for non-parametric coordinates.

mtllib Option Tile.mtl
g default
v -0.823498 0.313930 0.050902
v 0.823498 0.313930 0.050902
v -0.823498 1.443996 0.050902
v 0.823498 1.443996 0.050902
v -0.821618 1.442706 -0.056387
v 0.821618 1.442706 -0.056387
v -0.821618 0.315220 -0.056387
v 0.821618 0.315220 -0.056387
v 0.830933 0.308829 0.044143
v -0.830933 0.308829 0.044143
v -0.830933 1.449097 0.044143
v 0.830933 1.449097 0.044143
v -0.830933 0.308829 -0.049336
v -0.830933 1.449097 -0.049336
v 0.830933 1.449097 -0.049336
v 0.830933 0.308829 -0.049336
vt 0.375000 0.000000
vt 0.625000 0.000000
vt 0.375000 0.250000
vt 0.625000 0.250000
vt 0.375000 0.500000
vt 0.625000 0.500000
vt 0.375000 0.750000
vt 0.625000 0.750000
vt 0.375000 1.000000
vt 0.625000 1.000000
vt 0.875000 0.000000
vt 0.875000 0.250000
vt 0.125000 0.000000
vt 0.125000 0.250000
vt 0.625000 0.971259
vt 0.653741 0.000000
vt 0.346258 0.000000
vt 0.375000 0.971259
vt 0.346258 0.250000
vt 0.375000 0.278741
vt 0.625000 0.278741
vt 0.653741 0.250000
vt 0.142418 0.000000
vt 0.375000 0.767418
vt 0.142418 0.250000
vt 0.375000 0.482582
vt 0.625000 0.482582
vt 0.857582 0.250000
vt 0.625000 0.767418
vt 0.857582 0.000000
vn 0.000000 0.000000 1.000000
vn 0.000000 0.000000 1.000000
vn 0.000000 0.000000 1.000000
vn 0.000000 0.000000 1.000000
vn 0.000000 0.998214 -0.059733
vn 0.000000 0.998214 -0.059733
vn 0.000000 0.740944 -0.671567
vn 0.000000 0.740944 -0.671567
vn 0.000000 0.000000 -1.000000
vn 0.000000 0.000000 -1.000000
vn 0.000000 0.000000 -1.000000
vn 0.000000 0.000000 -1.000000
vn 0.000000 -0.740944 -0.671567
vn 0.000000 -0.740944 -0.671567
vn 0.000000 -0.998214 -0.059733
vn 0.000000 -0.998214 -0.059733
vn 0.996219 0.000000 -0.086883
vn 0.996219 0.000000 -0.086883
vn 0.603577 0.000000 -0.797305
vn 0.603577 0.000000 -0.797305
vn -0.603577 0.000000 -0.797305
vn -0.996219 0.000000 -0.086883
vn -0.996219 0.000000 -0.086883
vn -0.603577 0.000000 -0.797305
vn 0.000000 -0.998831 0.048344
vn 0.000000 -0.998831 0.048344
vn 0.000000 -0.798161 0.602444
vn 0.000000 -0.798161 0.602444
vn -0.997521 0.000000 0.070366
vn -0.997521 0.000000 0.070366
vn -0.672654 0.000000 0.739957
vn -0.672654 0.000000 0.739957
vn 0.000000 0.798161 0.602444
vn 0.000000 0.798161 0.602444
vn 0.000000 0.998831 0.048344
vn 0.000000 0.998831 0.048344
vn 0.672654 0.000000 0.739957
vn 0.997521 0.000000 0.070366
vn 0.997521 0.000000 0.070366
vn 0.672654 0.000000 0.739957
s off
g pCube1
usemtl initialShadingGroup
f 1/1/1 2/2/2 4/4/3 3/3/4
s 1
f 14/26/5 15/27/6 6/6/7 5/5/8
s off
f 5/5/9 6/6/10 8/8/11 7/7/12
s 2
f 7/7/13 8/8/14 16/29/15 13/24/16
s 3
f 15/28/17 16/30/18 8/11/19 6/12/20
s 4
f 7/13/21 13/23/22 14/25/23 5/14/24
s 2
f 10/18/25 9/15/26 2/10/27 1/9/28
s 4
f 11/19/29 10/17/30 1/1/31 3/3/32
s 1
f 3/3/33 4/4/34 12/21/35 11/20/36
s 3
f 2/2/37 9/16/38 12/22/39 4/4/40
s 4
f 13/23/22 10/17/30 11/19/29 14/25/23
s 1
f 11/20/36 12/21/35 15/27/6 14/26/5
s 3
f 12/22/39 9/16/38 16/30/18 15/28/17
s 2
f 13/24/16 16/29/15 9/15/26 10/18/25
